<svg width="126" height="22" viewBox="0 0 126 22" fill="none" xmlns="http://www.w3.org/2000/svg">
<path d="M9.63707 0.794123H12.3431L14.6091 16.4141H11.4851L11.0011 12.5201H5.96307L3.85107 16.4141H0.727066L9.63707 0.794123ZM10.9351 10.3861L10.2531 4.24812L6.90907 10.3861H10.9351ZM19.2715 21.3201C18.0689 21.3201 17.0935 21.1075 16.3455 20.6821C15.6122 20.2715 15.0329 19.6848 14.6075 18.9221L16.5435 17.3601C16.8369 17.9028 17.2622 18.3281 17.8195 18.6361C18.3769 18.9441 19.0149 19.0981 19.7335 19.0981C20.3055 19.0981 20.8555 18.9808 21.3835 18.7461C21.9115 18.5261 22.3735 18.1741 22.7695 17.6901C23.1802 17.2208 23.4589 16.6121 23.6055 15.8641L23.9135 14.4121C23.4149 15.0721 22.7989 15.5855 22.0655 15.9521C21.3469 16.3041 20.6209 16.4801 19.8875 16.4801C19.0809 16.4801 18.3842 16.2748 17.7975 15.8641C17.2255 15.4535 16.7929 14.9035 16.4995 14.2141C16.2062 13.5101 16.0595 12.7328 16.0595 11.8821C16.0595 10.9288 16.2282 10.0195 16.5655 9.15412C16.9175 8.28879 17.3942 7.52612 17.9955 6.86612C18.6115 6.19146 19.3082 5.66346 20.0855 5.28212C20.8775 4.88612 21.7062 4.68812 22.5715 4.68812C23.4222 4.68812 24.1189 4.89346 24.6615 5.30412C25.2189 5.70012 25.6295 6.23546 25.8935 6.91012L26.3115 4.88612H28.9075L26.5535 15.8641C26.3189 17.0081 25.8495 17.9835 25.1455 18.7901C24.4415 19.6115 23.5835 20.2348 22.5715 20.6601C21.5595 21.1001 20.4595 21.3201 19.2715 21.3201ZM21.4055 14.1261C21.6989 14.1261 21.9849 14.0748 22.2635 13.9721C22.5569 13.8695 22.8355 13.7301 23.0995 13.5541C23.3635 13.3781 23.6055 13.1728 23.8255 12.9381C24.0455 12.6888 24.2362 12.4395 24.3975 12.1901L24.9695 9.44012C24.9109 8.98546 24.7715 8.58946 24.5515 8.25212C24.3315 7.91479 24.0602 7.65812 23.7375 7.48212C23.4295 7.29146 23.0849 7.19612 22.7035 7.19612C22.2195 7.19612 21.7649 7.32079 21.3395 7.57012C20.9142 7.81946 20.5329 8.14946 20.1955 8.56012C19.8582 8.95612 19.5942 9.40346 19.4035 9.90212C19.2129 10.4008 19.1175 10.9141 19.1175 11.4421C19.1175 11.9261 19.2129 12.3808 19.4035 12.8061C19.5942 13.2168 19.8582 13.5395 20.1955 13.7741C20.5475 14.0088 20.9509 14.1261 21.4055 14.1261ZM34.2167 16.6341C33.2487 16.6341 32.4054 16.4288 31.6867 16.0181C30.9827 15.5928 30.4401 15.0135 30.0587 14.2801C29.6921 13.5321 29.5087 12.6888 29.5087 11.7501C29.5087 10.7968 29.6921 9.89479 30.0587 9.04412C30.4254 8.19346 30.9387 7.44546 31.5987 6.80012C32.2587 6.14012 33.0287 5.62679 33.9087 5.26012C34.7887 4.87879 35.7421 4.68812 36.7687 4.68812C37.6047 4.68812 38.3307 4.81279 38.9467 5.06212C39.5627 5.31146 40.0394 5.67812 40.3767 6.16212C40.7141 6.63146 40.8827 7.21079 40.8827 7.90012C40.8827 9.11746 40.3254 10.0415 39.2107 10.6721C38.1107 11.3028 36.4534 11.6181 34.2387 11.6181C33.7987 11.6181 33.3221 11.6108 32.8087 11.5961C32.2954 11.5668 31.7381 11.5228 31.1367 11.4641L31.5107 9.61612C32.0387 9.66012 32.5227 9.69679 32.9627 9.72612C33.4027 9.74079 33.8354 9.74812 34.2607 9.74812C35.2141 9.74812 35.9621 9.68212 36.5047 9.55012C37.0621 9.41812 37.4654 9.22746 37.7147 8.97812C37.9641 8.72879 38.0887 8.43546 38.0887 8.09812C38.0887 7.80479 38.0154 7.57012 37.8687 7.39412C37.7221 7.20346 37.5167 7.06412 37.2527 6.97612C37.0034 6.87346 36.7027 6.82212 36.3507 6.82212C35.7787 6.82212 35.2507 6.96146 34.7667 7.24012C34.2974 7.50412 33.8867 7.87079 33.5347 8.34012C33.1827 8.80946 32.9114 9.34479 32.7207 9.94612C32.5301 10.5475 32.4347 11.1855 32.4347 11.8601C32.4347 12.3588 32.5154 12.8135 32.6767 13.2241C32.8527 13.6201 33.1094 13.9281 33.4467 14.1481C33.7841 14.3681 34.2167 14.4781 34.7447 14.4781C35.3314 14.4781 35.8814 14.3388 36.3947 14.0601C36.9227 13.7815 37.3407 13.3928 37.6487 12.8941L39.9807 13.6201C39.5994 14.2068 39.1007 14.7275 38.4847 15.1821C37.8687 15.6368 37.1941 15.9961 36.4607 16.2601C35.7274 16.5095 34.9794 16.6341 34.2167 16.6341ZM33.8867 2.62012L36.6147 0.398123H38.7267L40.5087 2.62012L38.8147 3.32412L37.3407 1.93812L35.2727 3.32412L33.8867 2.62012ZM43.6279 4.88612H46.2899L45.8279 7.02012C46.2093 6.52146 46.6493 6.10346 47.1479 5.76612C47.6613 5.41412 48.2113 5.15012 48.7979 4.97412C49.3993 4.78346 50.0153 4.68812 50.6459 4.68812C51.3206 4.68812 51.8413 4.80546 52.2079 5.04012C52.5746 5.27479 52.8313 5.59746 52.9779 6.00812C53.1393 6.40412 53.2199 6.85146 53.2199 7.35012C53.2199 7.65812 53.1979 7.96612 53.1539 8.27412C53.1099 8.58212 53.0586 8.89746 52.9999 9.22012L51.4819 16.4141H48.5339L49.8979 9.94612C49.9566 9.72612 49.9933 9.52079 50.0079 9.33012C50.0373 9.13946 50.0519 8.95612 50.0519 8.78012C50.0519 8.26679 49.9346 7.89279 49.6999 7.65812C49.4799 7.40879 49.1793 7.28412 48.7979 7.28412C48.4459 7.28412 48.0646 7.38679 47.6539 7.59212C47.2433 7.79746 46.8546 8.08346 46.4879 8.45012C46.1213 8.80212 45.8133 9.21279 45.5639 9.68212L44.1339 16.4141H41.1859L43.6279 4.88612ZM59.1166 16.6341C58.0899 16.6341 57.2246 16.4141 56.5206 15.9741C55.8166 15.5341 55.2886 14.9475 54.9366 14.2141C54.5846 13.4661 54.4086 12.6521 54.4086 11.7721C54.4086 10.8628 54.5846 9.98279 54.9366 9.13212C55.2886 8.28146 55.7799 7.52612 56.4106 6.86612C57.0559 6.19146 57.8186 5.66346 58.6986 5.28212C59.5786 4.88612 60.5466 4.68812 61.6026 4.68812C62.8346 4.68812 63.8099 4.95946 64.5286 5.50212C65.2619 6.04479 65.7459 6.75612 65.9806 7.63612L62.9446 8.51612C62.7979 8.09079 62.5633 7.76812 62.2406 7.54812C61.9179 7.31346 61.5293 7.19612 61.0746 7.19612C60.6199 7.19612 60.1726 7.30612 59.7326 7.52612C59.3073 7.73146 58.9186 8.03212 58.5666 8.42812C58.2293 8.80946 57.9579 9.25679 57.7526 9.77012C57.5619 10.2835 57.4666 10.8335 57.4666 11.4201C57.4666 11.9481 57.5546 12.4175 57.7306 12.8281C57.9066 13.2388 58.1559 13.5615 58.4786 13.7961C58.8013 14.0161 59.1753 14.1261 59.6006 14.1261C59.9233 14.1261 60.2386 14.0675 60.5466 13.9501C60.8693 13.8328 61.1626 13.6715 61.4266 13.4661C61.6906 13.2608 61.9033 13.0261 62.0646 12.7621L64.7486 13.6421C64.3673 14.2141 63.8906 14.7275 63.3186 15.1821C62.7466 15.6368 62.1013 15.9961 61.3826 16.2601C60.6786 16.5095 59.9233 16.6341 59.1166 16.6341ZM68.3564 4.88612H71.3044L68.8624 16.4141H65.9144L68.3564 4.88612ZM69.3244 0.354123H72.2724L71.6564 3.28012H68.7084L69.3244 0.354123ZM75.9889 16.6341C75.1382 16.6341 74.4049 16.4288 73.7889 16.0181C73.1876 15.5928 72.7182 15.0281 72.3809 14.3241C72.0582 13.6055 71.8969 12.7988 71.8969 11.9041C71.8969 10.9508 72.0656 10.0415 72.4029 9.17612C72.7402 8.31079 73.2022 7.54079 73.7889 6.86612C74.3902 6.19146 75.0649 5.66346 75.8129 5.28212C76.5756 4.88612 77.3749 4.68812 78.2109 4.68812C79.0029 4.68812 79.6776 4.90079 80.2349 5.32612C80.7922 5.73679 81.1736 6.26479 81.3789 6.91012L81.8189 4.93012H84.7669L83.0509 13.0261C83.0362 13.0995 83.0216 13.1728 83.0069 13.2461C82.9922 13.3048 82.9849 13.3635 82.9849 13.4221C82.9849 13.7301 83.1609 13.8915 83.5129 13.9061L82.9849 16.4141C82.7209 16.4581 82.4862 16.4948 82.2809 16.5241C82.0902 16.5535 81.9216 16.5681 81.7749 16.5681C81.2469 16.5681 80.8362 16.4581 80.5429 16.2381C80.2496 16.0181 80.1029 15.6881 80.1029 15.2481C80.1029 15.1895 80.1102 15.1235 80.1249 15.0501C80.1396 14.9621 80.1542 14.8668 80.1689 14.7641C80.1836 14.6468 80.2056 14.5295 80.2349 14.4121C79.6776 15.1308 79.0176 15.6808 78.2549 16.0621C77.4922 16.4435 76.7369 16.6341 75.9889 16.6341ZM77.3089 14.1261C77.5582 14.1261 77.8222 14.0821 78.1009 13.9941C78.3796 13.8915 78.6509 13.7595 78.9149 13.5981C79.1936 13.4221 79.4502 13.2168 79.6849 12.9821C79.9196 12.7328 80.1176 12.4688 80.2789 12.1901L80.8509 9.44012C80.8069 9.01479 80.6749 8.63346 80.4549 8.29612C80.2349 7.95879 79.9636 7.69479 79.6409 7.50412C79.3182 7.29879 78.9736 7.19612 78.6069 7.19612C78.1376 7.19612 77.6829 7.32079 77.2429 7.57012C76.8176 7.80479 76.4362 8.12746 76.0989 8.53812C75.7616 8.93412 75.4902 9.38879 75.2849 9.90212C75.0942 10.4008 74.9989 10.9141 74.9989 11.4421C74.9989 11.9408 75.0942 12.3955 75.2849 12.8061C75.4756 13.2168 75.7396 13.5395 76.0769 13.7741C76.4289 14.0088 76.8396 14.1261 77.3089 14.1261Z" fill="white"/>
<path d="M93.4498 0.794123H97.7398L96.4858 6.73412L101.942 0.794123H106.804L99.9618 7.79012L103.856 16.4141H98.9058L96.6178 10.6721L95.3858 11.9041L94.4178 16.4141H90.1278L93.4498 0.794123ZM108.276 16.6341C107.425 16.6341 106.692 16.4361 106.076 16.0401C105.474 15.6441 105.005 15.0941 104.668 14.3901C104.345 13.6861 104.184 12.8795 104.184 11.9701C104.184 10.9728 104.345 10.0341 104.668 9.15412C105.005 8.25946 105.467 7.47479 106.054 6.80012C106.64 6.12546 107.308 5.59746 108.056 5.21612C108.804 4.82012 109.596 4.62212 110.432 4.62212C111.121 4.62212 111.722 4.79812 112.236 5.15012C112.749 5.48746 113.094 5.95679 113.27 6.55812L113.622 4.93012H117.824L116.35 11.7941C116.335 11.8968 116.32 11.9921 116.306 12.0801C116.291 12.1681 116.284 12.2488 116.284 12.3221C116.284 12.6888 116.482 12.8795 116.878 12.8941L116.13 16.4141C115.748 16.4875 115.404 16.5388 115.096 16.5681C114.802 16.6121 114.553 16.6341 114.348 16.6341C113.702 16.6341 113.182 16.5095 112.786 16.2601C112.404 16.0108 112.214 15.5708 112.214 14.9401C112.214 14.8961 112.214 14.8595 112.214 14.8301C112.214 14.7861 112.214 14.7495 112.214 14.7201C112.228 14.6761 112.236 14.6395 112.236 14.6101C111.708 15.3141 111.092 15.8275 110.388 16.1501C109.698 16.4728 108.994 16.6341 108.276 16.6341ZM110.168 13.1141C110.344 13.1141 110.512 13.0921 110.674 13.0481C110.835 12.9895 110.996 12.9161 111.158 12.8281C111.319 12.7255 111.48 12.6008 111.642 12.4541C111.818 12.2928 111.994 12.1168 112.17 11.9261L112.61 9.85812C112.566 9.52079 112.47 9.22746 112.324 8.97812C112.177 8.71412 111.994 8.50879 111.774 8.36212C111.554 8.21546 111.312 8.14212 111.048 8.14212C110.74 8.14212 110.439 8.23012 110.146 8.40612C109.852 8.56746 109.588 8.79479 109.354 9.08812C109.119 9.38146 108.928 9.71879 108.782 10.1001C108.65 10.4815 108.584 10.8775 108.584 11.2881C108.584 11.6548 108.642 11.9775 108.76 12.2561C108.892 12.5201 109.075 12.7328 109.31 12.8941C109.544 13.0408 109.83 13.1141 110.168 13.1141ZM120.364 4.84212H124.544L122.08 16.4141H117.9L120.364 4.84212ZM121.31 0.354123H125.49L124.742 3.87412H120.562L121.31 0.354123Z" fill="#0085FF"/>
</svg>
